<svg width="40" height="40" viewBox="0 0 40 40" fill="none" xmlns="http://www.w3.org/2000/svg">
<g opacity="0.9">
<circle cx="20" cy="20" r="20" fill="black"/>
<path d="M21.5996 15.2H27.9996M24.7996 12V18.4" stroke="white" stroke-width="1.6" stroke-linecap="round" stroke-linejoin="round"/>
<path d="M15.279 25.9998C14.239 25.8975 13.4598 25.5851 12.9373 25.0625C12 24.1253 12 22.6168 12 19.5998V19.1998C12 16.1828 12 14.6743 12.9373 13.7371C13.8745 12.7998 15.383 12.7998 18.4 12.7998H19.6M15.6 24.7998C15.4356 25.6013 14.7022 27.333 15.4526 27.8919C15.8448 28.1772 16.4698 27.8724 17.7199 27.2629C18.5972 26.8351 19.485 26.3445 20.4437 26.1238C20.7945 26.0439 21.1516 26.0098 21.6 25.9998C24.617 25.9998 26.1255 25.9998 27.0627 25.0625C27.9576 24.1676 27.9981 22.752 27.9999 19.9998" stroke="white" stroke-width="1.6" stroke-linecap="round"/>
<path d="M16.7998 21.6001H21.5998M16.7998 17.6001H19.1998" stroke="white" stroke-width="1.6" stroke-linecap="round" stroke-linejoin="round"/>
</g>
</svg>
